Coordinates
version=1
nRows=12
nColumns=42
inDegrees=yes

Units are S.I. units (second, meters, Newtons, ...)
If the header above contains a line with 'inDegrees', this indicates whether rotational values are in degrees (yes) or radians (no).

endheader
time	pelvis_tilt	pelvis_list	pelvis_rotation	pelvis_tx	pelvis_ty	pelvis_tz	hip_flexion_r	hip_adduction_r	hip_rotation_r	knee_angle_r	knee_adduction_r	knee_angle_r_beta	ankle_angle_r	subtalar_angle_r	mtp_angle_r	hip_flexion_l	hip_adduction_l	hip_rotation_l	knee_angle_l	knee_adduction_l	knee_angle_l_beta	ankle_angle_l	subtalar_angle_l	mtp_angle_l	lumbar_extension	lumbar_bending	lumbar_rotation	arm_flex_r	arm_add_r	arm_rot_r	elbow_flex_r	pro_sup_r	wrist_flex_r	wrist_dev_r	arm_flex_l	arm_add_l	arm_rot_l	elbow_flex_l	pro_sup_l	wrist_flex_l	wrist_dev_l
      2.03000000	     -2.03261059	     -3.90394479	     -3.30509828	      0.98670243	      0.84459525	     -0.36641664	     -6.32379345	      3.40595235	     -3.03414213	     10.50761920	      7.32504884	      0.18339255	     15.91391930	      4.80729491	     -7.50518260	     32.12665241	    -10.66452266	     -7.84137608	     26.87517183	      8.89221470	      0.46906024	      5.63387817	    -14.54513946	     -7.50518260	     -8.61707405	      3.82696159	      6.24711749	     10.94631063	    -16.75848641	      4.33739819	     34.77643618	     90.00000001	      0.00000000	      0.00000000	     -6.55947145	     -8.18134148	    -18.99614542	     25.83036191	     90.00000001	      0.00000000	      0.00000000
      2.04000000	     -1.95998455	     -4.09593113	     -3.83677625	      0.99843809	      0.84289340	     -0.36639586	     -7.03320974	      3.48218656	     -2.67222150	     11.06032934	      7.21010332	      0.19303916	     16.28165898	      5.07338863	     -7.50507585	     31.67667205	    -11.10361716	     -8.88255890	     23.66460754	      8.96122291	      0.41302532	      4.98699252	    -13.72152323	     -7.50507585	     -8.81064281	      3.95916517	      6.77994989	     11.63296936	    -16.94197646	      4.63555551	     35.46598798	     90.00000001	      0.00000000	      0.00000000	     -6.69004811	     -8.13007714	    -19.26895978	     25.68653857	     90.00000001	      0.00000000	      0.00000000
      2.05000000	     -1.84295920	     -4.17825710	     -4.32740015	      1.01036338	      0.84133001	     -0.36661246	     -7.79088073	      3.32612956	     -2.33917711	     11.60867558	      7.25802746	      0.20260961	     16.70297802	      5.34874669	     -7.50496797	     31.05960507	    -11.34254105	     -9.68359874	     20.64040117	      9.06935022	      0.36024296	      4.30825990	    -12.84009884	     -7.50496797	     -9.03767865	      3.97362440	      7.29353761	     12.19288284	    -17.16502811	      4.97990079	     36.18355493	     90.00000001	      0.00000000	      0.00000000	     -6.79300109	     -8.05094434	    -19.58641546	     25.52388800	     90.00000001	      0.00000000	      0.00000000
      2.06000000	     -1.73556620	     -4.20566492	     -4.76048756	      1.02247496	      0.83984632	     -0.36701357	     -8.46904747	      3.07886788	     -2.32981441	     12.31526136	      7.24934724	      0.21494186	     17.17984717	      6.23182693	     -7.50452799	     30.41309941	    -11.43849454	    -10.15255971	     17.96408716	      9.18644985	      0.31353247	      3.55236584	    -12.64108380	     -7.50452799	     -9.22702520	      3.94507113	      7.67411111	     12.42270990	    -17.75695387	      6.50966633	     37.59971534	     90.00000001	      0.00000000	      0.00000000	     -6.56849191	     -7.80206018	    -21.19084742	     24.77043861	     90.00000001	      0.00000000	      0.00000000
      2.07000000	     -1.74252672	     -4.26783286	     -5.25225626	      1.03459742	      0.83840346	     -0.36728000	     -8.94636554	      2.90921411	     -1.85901546	     13.13527629	      7.21778287	      0.22925382	     17.29814395	      6.31419495	     -7.50443390	     29.97217977	    -11.64329480	    -10.86856459	     15.98522907	      9.24760695	      0.27899488	      3.16900396	    -11.66114532	     -7.50443390	     -9.29224667	      3.92346277	      8.15831233	     12.95849596	    -17.83863465	      6.56450056	     38.01335507	     90.00000001	      0.00000000	      0.00000000	     -6.73896214	     -7.77212104	    -21.32260395	     24.82681131	     90.00000001	      0.00000000	      0.00000000
      2.08000000	     -1.83364816	     -4.37836520	     -5.68290810	      1.04690442	      0.83703015	     -0.36766333	     -9.34636480	      2.85049340	     -1.38397086	     13.91245382	      7.05975052	      0.24281813	     17.23571274	      6.37895066	     -7.50438376	     29.71857348	    -11.86515926	    -11.58001595	     14.67252530	      9.25351745	      0.25608388	      3.03570726	    -11.10962889	     -7.50438376	     -9.22730090	      4.01114017	      8.42893337	     13.48273841	    -17.81344525	      6.60149489	     38.47039069	     90.00000001	      0.00000000	      0.00000000	     -7.05468051	     -7.69845975	    -21.39492531	     24.77312958	     90.00000001	      0.00000000	      0.00000000
      2.09000000	     -1.76808645	     -4.12312638	     -6.07467005	      1.05940419	      0.83607362	     -0.36827441	     -9.75026169	      2.21885531	     -1.01294295	     14.98014105	      7.21088523	      0.26145278	     17.17364587	      6.35020909	     -7.50426833	     29.05250944	    -11.55473612	    -11.77387058	     13.28379060	      9.22360437	      0.23184588	      2.78864808	    -10.06186554	     -7.50426833	     -9.31765959	      3.59466663	      8.86882884	     13.61638203	    -17.98689314	      6.80316944	     39.18875072	     90.00000001	      0.00000000	      0.00000000	     -7.04391288	     -7.71094434	    -21.69553683	     24.75769991	     90.00000001	      0.00000000	      0.00000000
      2.10000000	     -1.84862241	     -3.98395025	     -6.43898806	      1.07198736	      0.83514576	     -0.36887815	     -9.93938073	      1.80700413	     -0.58436282	     16.14004642	      7.20573945	      0.28169695	     16.79064620	      6.23756445	     -7.50417310	     28.70268279	    -11.40443436	    -12.00310556	     12.65643133	      9.19513126	      0.22089640	      2.75016631	     -9.54581286	     -7.50417310	     -9.22582123	      3.35505712	      9.17608755	     13.76391200	    -18.06318575	      6.99458159	     39.83534740	     90.00000001	      0.00000000	      0.00000000	     -7.11279311	     -7.71335831	    -22.02295174	     24.64371658	     90.00000001	      0.00000000	      0.00000000
      2.11000000	     -1.96229817	     -3.79199486	     -6.75733266	      1.08472436	      0.83441207	     -0.36957301	     -9.99567484	      1.34595996	     -0.17836389	     17.45399162	      7.22338298	      0.30462962	     16.17503737	      5.97467919	     -7.50408182	     28.39294409	    -11.17046085	    -12.13874452	     12.42996352	      9.15682370	      0.21694379	      2.78208726	     -9.16266484	     -7.50408182	     -9.07041780	      3.06586970	      9.42711768	     13.84994595	    -18.08439213	      7.14363736	     40.39210952	     90.00000001	      0.00000000	      0.00000000	     -7.19600481	     -7.72306638	    -22.32219901	     24.55404422	     90.00000001	      0.00000000	      0.00000000
      2.12000000	     -2.05832312	     -3.59821316	     -7.04442617	      1.09762278	      0.83392220	     -0.37030375	    -10.00828088	      0.89718121	      0.34651133	     18.85613354	      7.27682077	      0.32910161	     15.38098551	      5.69023328	     -7.50403322	     28.05002438	    -10.92266220	    -12.10772122	     12.52126004	      9.15884373	      0.21853721	      2.83236571	     -9.01265541	     -7.50403322	     -8.90996290	      2.77038115	      9.58037748	     13.95645915	    -18.01029718	      7.21130935	     40.75278417	     90.00000001	      0.00000000	      0.00000000	     -7.32705333	     -7.75309724	    -22.48575493	     24.48105935	     90.00000001	      0.00000000	      0.00000000
      2.13000000	     -2.19589281	     -3.27954196	     -7.27319557	      1.11062833	      0.83358661	     -0.37118036	     -9.78303188	      0.31161497	      0.60518400	     20.60419861	      7.32894921	      0.35961111	     14.17438679	      5.02388888	     -7.50397213	     27.76279134	    -10.48750741	    -12.01297250	     12.88819337	      9.09431320	      0.22494141	      2.85230280	     -8.94957685	     -7.50397213	     -8.66588073	      2.33240968	      9.68374536	     13.88184341	    -17.94128096	      7.27259874	     41.14250638	     90.00000001	      0.00000000	      0.00000000	     -7.39542146	     -7.82714270	    -22.68702945	     24.44035762	     90.00000001	      0.00000000	      0.00000000
      2.14000000	     -2.30140402	     -2.98333337	     -7.46456181	      1.12375529	      0.83348903	     -0.37209636	     -9.48881435	     -0.24330806	      0.87487468	     22.51616785	      7.42367438	      0.39298126	     12.79373738	      4.34319323	     -7.50389918	     27.44834879	    -10.08119911	    -11.84216985	     13.50794564	      9.08802307	      0.23575813	      2.87998533	     -8.85859482	     -7.50389918	     -8.45003915	      1.92265613	      9.71103953	     13.80044776	    -17.81680443	      7.29828590	     41.48865139	     90.00000001	      0.00000000	      0.00000000	     -7.51704632	     -7.90143528	    -22.80924927	     24.47187485	     90.00000001	      0.00000000	      0.00000000
